<svg width="20" height="20" viewBox="0 0 20 20" fill="none" xmlns="http://www.w3.org/2000/svg">
<path d="M8.93814 0.794006H6.54973C5.68441 0.794006 4.9117 1.49602 4.62432 2.54289L0.862901 16.1973C0.79904 16.4354 0.763916 16.6899 0.763916 16.9445C0.763916 18.1802 1.54621 19.186 2.50732 19.186H8.93814V16.5586C8.93814 15.8319 9.39474 15.2449 9.95992 15.2449C10.5251 15.2449 10.9817 15.8319 10.9817 16.5586V19.186H17.4125C18.3768 19.186 19.1559 18.1802 19.1559 16.9445C19.1559 16.6899 19.1208 16.4354 19.0569 16.1973L15.2955 2.54289C15.0049 1.49602 14.2354 0.794006 13.3701 0.794006H10.9817V3.42143C10.9817 4.14808 10.5251 4.73515 9.95992 4.73515C9.39474 4.73515 8.93814 4.14808 8.93814 3.42143V0.794006ZM10.9817 8.67629V11.3037C10.9817 12.0304 10.5251 12.6174 9.95992 12.6174C9.39474 12.6174 8.93814 12.0304 8.93814 11.3037V8.67629C8.93814 7.94964 9.39474 7.36258 9.95992 7.36258C10.5251 7.36258 10.9817 7.94964 10.9817 8.67629Z" fill="#252B3D"/>
</svg>
