<svg width="16" height="20" viewBox="0 0 16 20" fill="none" xmlns="http://www.w3.org/2000/svg">
<path d="M7.98998 9.98998C9.23144 9.98998 10.5265 9.86338 11.8753 9.61018C13.224 9.35698 14.3812 9.02378 15.3468 8.61058V17.8066C14.4272 18.2204 13.3083 18.5539 11.9902 18.8071C10.6721 19.0603 9.33873 19.1866 7.98998 19.186C6.64123 19.1854 5.30781 19.0588 3.98972 18.8062C2.67163 18.5536 1.55278 18.2204 0.633179 17.8066V8.61058C1.59876 9.0244 2.75592 9.3579 4.10467 9.6111C5.45342 9.8643 6.74852 9.99059 7.98998 9.98998ZM7.98998 0.793976C9.00154 0.793976 9.8675 1.15415 10.5878 1.87451C11.3082 2.59486 11.6684 3.46082 11.6684 4.47238C11.6684 5.48394 11.3082 6.34989 10.5878 7.07025C9.8675 7.7906 9.00154 8.15078 7.98998 8.15078C6.97842 8.15078 6.11246 7.7906 5.39211 7.07025C4.67176 6.34989 4.31158 5.48394 4.31158 4.47238C4.31158 3.46082 4.67176 2.59486 5.39211 1.87451C6.11246 1.15415 6.97842 0.793976 7.98998 0.793976Z" fill="white"/>
</svg>
