<svg width="21" height="18" viewBox="0 0 21 18" fill="none" xmlns="http://www.w3.org/2000/svg">
<path d="M4.85676 8.02442L3.93716 8.5302C3.72259 8.65281 3.49269 8.68347 3.24746 8.62216C3.00223 8.56085 2.81831 8.42291 2.6957 8.20834L0.8565 4.98974C0.733887 4.77517 0.703233 4.54527 0.76454 4.30004C0.825847 4.05481 0.963787 3.87089 1.17836 3.74828L6.46606 0.713599H8.07536C8.2133 0.713599 8.32457 0.755901 8.40918 0.840504C8.49378 0.925107 8.53577 1.03607 8.53516 1.1734V1.6332C8.53516 2.13898 8.7154 2.57211 9.07589 2.93259C9.43637 3.29308 9.86919 3.47301 10.3744 3.4724C10.8795 3.47179 11.3127 3.29185 11.6738 2.93259C12.0349 2.57334 12.2148 2.14021 12.2136 1.6332V1.1734C12.2136 1.03546 12.2559 0.924188 12.3405 0.839584C12.4251 0.754981 12.536 0.712986 12.6734 0.713599H14.2827L19.5704 3.74828C19.7849 3.87089 19.9229 4.05481 19.9842 4.30004C20.0455 4.54527 20.0148 4.77517 19.8922 4.98974L18.053 8.20834C17.9304 8.42291 17.7502 8.55717 17.5123 8.61112C17.2744 8.66507 17.0408 8.63044 16.8116 8.50721L15.892 8.04741V16.3468C15.892 16.6074 15.8037 16.8259 15.6271 17.0025C15.4506 17.179 15.2323 17.267 14.9724 17.2664H5.77636C5.51581 17.2664 5.29756 17.1781 5.12161 17.0016C4.94566 16.825 4.85737 16.6067 4.85676 16.3468V8.02442Z" fill="#252B3D"/>
</svg>
