<svg width="19" height="20" viewBox="0 0 19 20" fill="none" xmlns="http://www.w3.org/2000/svg">
<path d="M14.8973 1.24369C14.8283 1.12402 14.7331 1.02144 14.619 0.943591C14.5048 0.86574 14.3746 0.814612 14.238 0.794006C13.861 0.794006 13.4536 1.09196 13.0177 1.4129C12.9098 1.4926 12.8004 1.57168 12.6894 1.65015C12.191 1.99684 11.619 2.31227 11.1297 2.41158C10.3665 2.56791 9.4901 2.34813 8.78753 2.03455C7.98748 1.66579 7.52492 2.51458 7.16719 3.17117C7.10006 3.29348 7.03661 3.41027 6.97591 3.5105C6.70923 3.94548 6.37358 4.46413 5.99194 4.98738C5.83966 4.97337 5.68628 4.99755 5.54569 5.05775C5.40511 5.11794 5.28176 5.21225 5.1868 5.33213C5.09185 5.45201 5.02829 5.59368 5.00188 5.74431C4.97547 5.89494 4.98705 6.04979 5.03556 6.19482C4.75232 6.54243 4.48349 6.87563 4.22907 7.19442C4.05263 7.14462 3.86532 7.14869 3.69121 7.20612C3.5171 7.26355 3.36412 7.37171 3.25193 7.51672C3.13974 7.66172 3.07346 7.83695 3.06159 8.01991C3.04972 8.20286 3.09281 8.38519 3.18532 8.54348C2.19951 9.86126 1.52085 10.9326 1.1291 11.8862C0.798042 12.6955 0.656424 13.4523 0.718037 14.2238C0.77965 14.9844 1.03254 15.6924 1.38659 16.4088C1.86662 17.379 3.04371 17.6448 3.90537 17.1473L17.4437 9.33065C17.8661 9.08675 18.1744 8.68504 18.3006 8.21389C18.4268 7.74274 18.3608 7.24073 18.1169 6.81831L17.6571 6.02193L12.0825 9.24053C11.8714 9.36055 11.6213 9.39221 11.387 9.32858C11.1526 9.26496 10.953 9.11122 10.8315 8.90092C10.7101 8.69062 10.6768 8.44083 10.7389 8.20606C10.801 7.97129 10.9534 7.7706 11.1629 7.64778L16.7375 4.42918L14.8973 1.24369Z" fill="#252B3D"/>
</svg>
