<svg width="21" height="21" viewBox="0 0 21 21" fill="none" xmlns="http://www.w3.org/2000/svg">
<path d="M11.1373 0.616518C10.7428 0.221885 10.2077 0.000119174 9.64966 0H2.10416C1.5461 0 1.0109 0.221687 0.616293 0.616293C0.221687 1.0109 0 1.5461 0 2.10416V9.64966C0.000119174 10.2077 0.221885 10.7428 0.616518 11.1373L9.03315 19.5539C9.42773 19.9484 9.96284 20.17 10.5208 20.17C11.0787 20.17 11.6138 19.9484 12.0084 19.5539L19.5539 12.0084C19.9484 11.6138 20.17 11.0787 20.17 10.5208C20.17 9.96284 19.9484 9.42773 19.5539 9.03315L11.1373 0.616518ZM5.26039 7.36455C4.7022 7.36441 4.16692 7.14253 3.77231 6.74773C3.3777 6.35293 3.1561 5.81754 3.15624 5.25934C3.15637 4.70114 3.37825 4.16586 3.77305 3.77126C4.16786 3.37665 4.70325 3.15504 5.26144 3.15518C5.81964 3.15532 6.35492 3.3772 6.74953 3.772C7.14413 4.16681 7.36574 4.7022 7.3656 5.26039C7.36546 5.81859 7.14359 6.35387 6.74878 6.74847C6.35398 7.14308 5.81859 7.36469 5.26039 7.36455Z" fill="#252B3D"/>
</svg>
